<?xml version="1.0" standalone="no"?>
<!DOCTYPE svg PUBLIC "-//W3C//DTD SVG 20010904//EN"
 "http://www.w3.org/TR/2001/REC-SVG-20010904/DTD/svg10.dtd">
<svg version="1.0" xmlns="http://www.w3.org/2000/svg"
 width="50.000000pt" height="50.000000pt" viewBox="0 0 50.000000 50.000000"
 preserveAspectRatio="xMidYMid meet">
<metadata>
Created by potrace 1.15, written by Peter Selinger 2001-2017
</metadata>
<g transform="translate(0.000000,50.000000) scale(0.100000,-0.100000)"
fill="#000000" stroke="none">
<path d="M311 441 c-34 -50 -46 -60 -78 -65 -21 -4 -51 -12 -67 -18 -26 -11
-31 -9 -55 20 -53 65 -70 27 -19 -44 32 -46 46 -51 78 -34 18 9 20 6 26 -30 7
-40 7 -40 43 -34 59 11 71 21 71 60 0 20 15 64 35 104 19 38 35 76 35 85 0 32
-31 13 -69 -44z"/>
<path d="M312 253 c-13 -9 -44 -22 -69 -28 -45 -11 -46 -12 -79 -95 -39 -95
-42 -120 -16 -120 12 0 29 24 55 75 27 56 42 75 57 75 18 0 20 -7 20 -81 0
-60 3 -80 13 -77 8 3 13 32 15 85 3 101 23 127 43 61 20 -63 45 -58 41 9 -7
106 -28 133 -80 96z"/>
</g>
</svg>
